<svg width="24" height="25" viewBox="0 0 24 25" fill="none" xmlns="http://www.w3.org/2000/svg">
<path d="M17.1814 8.16563C17.8442 8.16563 18.3814 7.62837 18.3814 6.96562C18.3814 6.30288 17.8442 5.76562 17.1814 5.76562C16.5187 5.76562 15.9814 6.30288 15.9814 6.96562C15.9814 7.62837 16.5187 8.16563 17.1814 8.16563Z" fill="#7A7D85"/>
<path d="M12 17.1006C9.2425 17.1006 7 14.8581 7 12.1006C7 9.34309 9.2425 7.10059 12 7.10059C14.7575 7.10059 17 9.34309 17 12.1006C17 14.8581 14.7575 17.1006 12 17.1006ZM12 9.60059C10.6213 9.60059 9.5 10.7218 9.5 12.1006C9.5 13.4793 10.6213 14.6006 12 14.6006C13.3787 14.6006 14.5 13.4793 14.5 12.1006C14.5 10.7218 13.3787 9.60059 12 9.60059Z" fill="#7A7D85"/>
<path d="M17 22.1006H7C4.43 22.1006 2 19.6706 2 17.1006V7.10059C2 4.53059 4.43 2.10059 7 2.10059H17C19.57 2.10059 22 4.53059 22 7.10059V17.1006C22 19.6706 19.57 22.1006 17 22.1006ZM7 4.60059C5.83125 4.60059 4.5 5.93184 4.5 7.10059V17.1006C4.5 18.2918 5.80875 19.6006 7 19.6006H17C18.1688 19.6006 19.5 18.2693 19.5 17.1006V7.10059C19.5 5.93184 18.1688 4.60059 17 4.60059H7Z" fill="#7A7D85"/>
</svg>
