<svg width="24" height="25" viewBox="0 0 24 25" fill="none" xmlns="http://www.w3.org/2000/svg">
<path d="M21.125 2.10059H2.875C2.375 2.10059 2 2.47559 2 2.97559V21.3506C2 21.7256 2.375 22.1006 2.875 22.1006H21.25C21.75 22.1006 22.125 21.7256 22.125 21.2256V2.97559C22 2.47559 21.625 2.10059 21.125 2.10059ZM7.875 19.1006H5V9.60059H8V19.1006H7.875ZM6.5 8.35059C5.5 8.35059 4.75 7.47559 4.75 6.60059C4.75 5.60059 5.5 4.85059 6.5 4.85059C7.5 4.85059 8.25 5.60059 8.25 6.60059C8.125 7.47559 7.375 8.35059 6.5 8.35059ZM19 19.1006H16V14.4756C16 13.3506 16 11.9756 14.5 11.9756C13 11.9756 12.75 13.2256 12.75 14.4756V19.2256H9.75V9.60059H12.625V10.8506C13 10.1006 14 9.35059 15.375 9.35059C18.375 9.35059 18.875 11.3506 18.875 13.8506V19.1006H19Z" fill="#7A7D85"/>
</svg>
