<svg width="24" height="25" viewBox="0 0 24 25" fill="none" xmlns="http://www.w3.org/2000/svg">
<path d="M12 2.10059C6.5 2.10059 2 6.60059 2 12.1006C2 16.3506 4.625 19.9756 8.375 21.3506C8.25 20.6006 8.25 19.3506 8.375 18.4756C8.5 17.7256 9.5 13.4756 9.5 13.4756C9.5 13.4756 9.25 12.9756 9.25 12.1006C9.25 10.7256 10.125 9.60059 11.125 9.60059C12 9.60059 12.375 10.2256 12.375 10.9756C12.375 11.8506 11.875 13.1006 11.5 14.3506C11.25 15.3506 12 16.1006 13 16.1006C14.75 16.1006 16.125 14.2256 16.125 11.4756C16.125 9.10059 14.375 7.35059 12 7.35059C9.125 7.35059 7.5 9.47559 7.5 11.7256C7.5 12.6006 7.875 13.4756 8.25 13.9756C8.25 14.2256 8.25 14.3506 8.25 14.4756C8.125 14.8506 8 15.4756 8 15.6006C8 15.7256 7.875 15.8506 7.625 15.7256C6.375 15.1006 5.625 13.3506 5.625 11.8506C5.625 8.72559 7.875 5.85059 12.25 5.85059C15.75 5.85059 18.375 8.35059 18.375 11.6006C18.375 15.1006 16.25 17.8506 13.125 17.8506C12.125 17.8506 11.125 17.3506 10.875 16.7256C10.875 16.7256 10.375 18.6006 10.25 19.1006C10 19.9756 9.375 21.1006 9 21.7256C10 21.9756 11 22.1006 12 22.1006C17.5 22.1006 22 17.6006 22 12.1006C22 6.60059 17.5 2.10059 12 2.10059Z" fill="#7A7D85"/>
</svg>
